<?xml version="1.0" standalone="no"?><!DOCTYPE svg PUBLIC "-//W3C//DTD SVG 1.1//EN" "http://www.w3.org/Graphics/SVG/1.1/DTD/svg11.dtd"><svg t="1762480705566" class="icon" viewBox="0 0 1024 1024" version="1.1" xmlns="http://www.w3.org/2000/svg" p-id="9484" xmlns:xlink="http://www.w3.org/1999/xlink" width="200" height="200"><path d="M320 192m32 0l384 0q32 0 32 32l0 0q0 32-32 32l-384 0q-32 0-32-32l0 0q0-32 32-32Z" p-id="9485"></path><path d="M320 384m32 0l576 0q32 0 32 32l0 0q0 32-32 32l-576 0q-32 0-32-32l0 0q0-32 32-32Z" p-id="9486"></path><path d="M320 576m32 0l384 0q32 0 32 32l0 0q0 32-32 32l-384 0q-32 0-32-32l0 0q0-32 32-32Z" p-id="9487"></path><path d="M320 768m32 0l576 0q32 0 32 32l0 0q0 32-32 32l-576 0q-32 0-32-32l0 0q0-32 32-32Z" p-id="9488"></path><path d="M160 224m-64 0a64 64 0 1 0 128 0 64 64 0 1 0-128 0Z" p-id="9489"></path><path d="M160 416m-64 0a64 64 0 1 0 128 0 64 64 0 1 0-128 0Z" p-id="9490"></path><path d="M160 608m-64 0a64 64 0 1 0 128 0 64 64 0 1 0-128 0Z" p-id="9491"></path><path d="M160 800m-64 0a64 64 0 1 0 128 0 64 64 0 1 0-128 0Z" p-id="9492"></path></svg>